<?xml version="1.0" standalone="no"?>
<!DOCTYPE svg PUBLIC "-//W3C//DTD SVG 20010904//EN"
 "http://www.w3.org/TR/2001/REC-SVG-20010904/DTD/svg10.dtd">
<svg version="1.0" xmlns="http://www.w3.org/2000/svg"
 width="600.000000pt" height="220.000000pt" viewBox="0 0 600.000000 220.000000"
 preserveAspectRatio="xMidYMid meet">

<g transform="translate(0.000000,220.000000) scale(0.100000,-0.100000)"
fill="#000000" stroke="none">
<path d="M0 1100 l0 -1100 3000 0 3000 0 0 1100 0 1100 -3000 0 -3000 0 0
-1100z m958 436 c60 -16 159 -69 154 -82 -2 -5 -19 -31 -38 -57 l-35 -48 -27
19 c-44 31 -122 54 -188 54 -91 1 -144 -32 -144 -89 0 -70 27 -91 177 -134
204 -58 270 -112 280 -229 7 -68 -8 -121 -49 -172 l-29 -38 125 0 126 0 2 388
3 387 293 3 292 2 0 -70 0 -70 -220 0 -220 0 0 -110 0 -110 200 0 200 0 0 -60
0 -60 -200 0 -200 0 0 -110 0 -110 228 -2 227 -3 3 -37 3 -38 84 0 85 0 2 387
3 388 293 3 292 2 0 -70 0 -70 -220 0 -220 0 0 -110 0 -110 200 0 200 0 0 -60
0 -60 -200 0 -200 0 0 -110 0 -110 228 -2 227 -3 3 -37 3 -38 84 0 85 0 2 388
3 387 70 3 70 2 240 -309 240 -310 3 309 2 310 70 0 70 0 0 -390 0 -391 72 3
71 3 171 388 170 388 76 -3 75 -3 167 -380 c92 -209 169 -384 170 -388 2 -4
39 -7 82 -5 l79 3 -41 29 c-23 16 -42 31 -42 35 0 3 20 28 44 55 l43 50 56
-37 c74 -49 127 -67 199 -67 79 0 125 20 143 63 29 70 -14 122 -124 153 -213
58 -266 86 -303 156 -17 33 -22 59 -22 113 0 85 26 139 88 183 62 45 109 55
227 50 107 -4 177 -25 241 -71 l27 -20 -32 -46 c-18 -25 -35 -49 -39 -55 -3
-5 -17 0 -33 12 -64 51 -218 72 -283 38 -36 -19 -52 -43 -52 -81 0 -61 39 -88
191 -130 163 -46 218 -79 250 -149 37 -82 17 -210 -42 -265 l-23 -21 72 0 72
0 0 -30 0 -30 -449 0 -448 0 -43 95 -43 95 -209 0 -209 0 -34 -77 c-19 -43
-39 -85 -43 -93 -8 -13 -43 -15 -218 -15 l-209 0 -230 296 -230 297 -5 -297
-5 -296 -1282 -3 -1283 -2 0 30 0 30 67 0 66 0 -41 30 c-23 17 -42 34 -42 38
0 4 20 30 44 57 l43 50 38 -30 c61 -46 142 -74 212 -75 101 0 153 33 153 98 0
70 -34 94 -194 136 -181 48 -251 106 -263 219 -8 81 11 142 62 193 23 23 62
48 86 57 56 20 207 21 277 3z"/>
<path d="M4122 1193 c-40 -91 -71 -168 -69 -170 2 -2 70 -2 150 -1 l145 3 -70
160 c-38 88 -73 163 -76 167 -4 4 -40 -68 -80 -159z"/>
</g>
</svg>
